# xmcd
#
# Track frame offsets:
#	150
#	19015
#	31052
#	47689
#	66847
#	79483
#	93682
#	105702
#	128446
#	142129
#	160231
#	175128
#	188949
#	202457
#	215353
#	224726
#	238682
#	254582
#	261679
#	273288
#	285719
#	298022
#
# Disc length: 4103 seconds
#
# Revision: 1
# Processed by: cddbd v1.5.2PL0 Copyright (c) Steve Scherf et al.
# Submitted via: audiograbber 1.83.01
#
DISCID=68100516
DTITLE=Helga Hahnemann - Die grössten Hits
DYEAR=2014
DGENRE=Folk
TTITLE0=Jetzt kommt dein Süsser
TTITLE1=Een kleenet Menschenkind
TTITLE2=Wo ist mein Jeld
TTITLE3=Berlin, meine Liebe
TTITLE4=Dicke da
TTITLE5=Clärchens Ballhaus
TTITLE6=Sport frei!
TTITLE7=Berlin
TTITLE8=Lieber Leierkastenmann
TTITLE9=Frech wie Rotz
TTITLE10=One for the road
TTITLE11=Big Helga
TTITLE12='n Sechser im Lotto
TTITLE13=Dicke da
TTITLE14=U-Bahn Beat
TTITLE15=Hier an der Spree
TTITLE16=Nach meine Beene is ja janz Berlin verrückt
TTITLE17=Wenn der Topp aber nun ein Loch hat
TTITLE18=Rockerrente I Jetzt kommt die Süsse
TTITLE19=Solang ich dein Freund bin
TTITLE20=Cry to me
TTITLE21=100x Berlin
EXTD=
EXTT0=
EXTT1=
EXTT2=
EXTT3=
EXTT4=
EXTT5=
EXTT6=
EXTT7=
EXTT8=
EXTT9=
EXTT10=
EXTT11=
EXTT12=
EXTT13=
EXTT14=
EXTT15=
EXTT16=
EXTT17=
EXTT18=
EXTT19=
EXTT20=
EXTT21=
PLAYORDER=
